<?xml version="1.0" encoding="utf-8"?>
<!-- Generator: Adobe Illustrator 25.2.1, SVG Export Plug-In . SVG Version: 6.00 Build 0)  -->
<svg version="1.1" xmlns="http://www.w3.org/2000/svg" xmlns:xlink="http://www.w3.org/1999/xlink" x="0px" y="0px"
	 viewBox="0 0 486.4 699.3" style="enable-background:new 0 0 486.4 699.3;" xml:space="preserve">
<style type="text/css">
	.st0{fill:#132638;}
	.st1{fill:#2B71B8;}
</style>
<g id="Layer_1">
</g>
<g id="Layer_2">
	<g>
		<path class="st0" d="M364.6,329.1L364.6,329.1c0-0.5,0.3-1,0.7-1.2c50.3-26.4,81.9-77.9,81.9-142.4
			c0-107.1-80.8-169.1-192.6-169.1H21c-0.8,0-1.4,0.6-1.4,1.4v13.6c0,36.3,29.4,65.8,65.8,65.8h167.4c63.9,0,99.6,39.5,99.6,97.7
			s-37.6,100.5-97.7,100.5h-98.9c-19.7,0-35.6,15.9-35.6,35.6v5.8c0,19.7,15.9,35.6,35.6,35.6h108.3c69.5,0,114.6,46,114.6,113.7
			c0,52.5-25.5,91.4-70.2,106.2c-1.4,0.5-1.2,2.4,0.2,2.7c27.8,5.5,48.9,30.1,48.9,59.5v6c0,1,1,1.7,1.9,1.3
			c67.5-26.9,114.1-84.2,114.1-171c0-73.9-39.1-139.3-108-160.3C365,330.3,364.6,329.7,364.6,329.1z"/>
		<path class="st1" d="M293.9,602.1H112.6V107H86c-30.4,0-56.3-15.2-66.3-42.2v618.1h329.9v-25.2C349.5,627,324.6,602.1,293.9,602.1
			z"/>
	</g>
</g>
</svg>
